<svg width="1441" height="49" viewBox="0 0 1441 49" fill="none" xmlns="http://www.w3.org/2000/svg">
<g clip-path="url(#clip0_177_129)">
<path d="M692.268 0C682.351 0 673.361 3.75378 668.333 9.40763C663.305 3.73834 654.454 0 644.537 0C634.619 0 625.831 3.75378 620.803 9.40763C615.774 3.73834 607.033 0 597.099 0C587.166 0 577.852 4.00095 572.917 9.99464C567.981 4.00095 558.992 0 548.734 0C538.476 0 530.09 3.75378 525.061 9.40763C520.033 3.73834 511.322 0 501.389 0C491.456 0 482.745 3.75378 477.717 9.40763C472.688 3.73834 463.977 0 454.044 0C444.111 0 435.4 3.75378 430.372 9.40763C425.344 3.73834 416.633 0 406.7 0C396.767 0 388.056 3.75378 383.027 9.40763C377.999 3.73834 369.288 0 359.355 0C349.422 0 340.711 3.75378 335.683 9.40763C330.654 3.73834 321.944 0 312.01 0C302.077 0 293.367 3.75378 288.338 9.40763C283.31 3.73834 274.599 0 264.666 0C254.733 0 246.022 3.75378 240.993 9.40763C235.965 3.73834 227.254 0 217.321 0C207.388 0 198.089 4.00095 193.154 9.99464C188.218 4.00095 179.244 0 168.986 0C158.728 0 150.342 3.75378 145.314 9.40763C140.286 3.73834 131.575 0 121.642 0C111.709 0 102.998 3.75378 97.9694 9.40763C92.9409 3.73834 84.2301 0 74.297 0C64.364 0 55.6532 3.75378 50.6247 9.40763C45.751 3.75378 37.5817 0 27.6486 0C12.0837 0 0 9.23771 0 20.6226V38.1866H721V20.6226C721 9.23771 707.849 0 692.268 0Z" fill="#8ECF3D"/>
<path d="M692.268 6.07104C682.351 6.07104 673.361 9.82483 668.333 15.4787C663.305 9.80938 654.454 6.07104 644.537 6.07104C634.619 6.07104 625.831 9.82483 620.803 15.4787C615.774 9.80938 607.033 6.07104 597.099 6.07104C587.166 6.07104 577.852 10.072 572.917 16.0657C567.981 10.072 558.992 6.07104 548.734 6.07104C538.476 6.07104 530.09 9.82483 525.061 15.4787C520.033 9.80938 511.322 6.07104 501.389 6.07104C491.456 6.07104 482.745 9.82483 477.717 15.4787C472.688 9.80938 463.977 6.07104 454.044 6.07104C444.111 6.07104 435.4 9.82483 430.372 15.4787C425.344 9.80938 416.633 6.07104 406.7 6.07104C396.767 6.07104 388.056 9.82483 383.027 15.4787C377.999 9.80938 369.288 6.07104 359.355 6.07104C349.422 6.07104 340.711 9.82483 335.683 15.4787C330.654 9.80938 321.944 6.07104 312.01 6.07104C302.077 6.07104 293.367 9.82483 288.338 15.4787C283.31 9.80938 274.599 6.07104 264.666 6.07104C254.733 6.07104 246.022 9.82483 240.993 15.4787C235.965 9.80938 227.254 6.07104 217.321 6.07104C207.388 6.07104 198.089 10.072 193.154 16.0657C188.218 10.072 179.244 6.07104 168.986 6.07104C158.728 6.07104 150.342 9.82483 145.314 15.4787C140.286 9.80938 131.575 6.07104 121.642 6.07104C111.709 6.07104 102.998 9.82483 97.9694 15.4787C92.9409 9.80938 84.2301 6.07104 74.297 6.07104C64.364 6.07104 55.6532 9.82483 50.6247 15.4787C45.5963 9.80938 37.427 6.07104 27.5094 6.07104C12.0837 6.07104 0 15.3088 0 26.6937V42.821H721V26.6937C721 15.3088 707.849 6.07104 692.268 6.07104Z" fill="#E7DD9E"/>
<path d="M692.268 13.1768C682.351 13.1768 673.361 16.9305 668.333 22.5844C663.305 16.9151 654.454 13.1768 644.537 13.1768C634.619 13.1768 625.831 16.9305 620.803 22.5844C615.774 16.9151 607.033 13.1768 597.099 13.1768C587.166 13.1768 577.852 17.1777 572.917 23.1714C567.981 17.1777 558.992 13.1768 548.734 13.1768C538.476 13.1768 530.09 16.9305 525.061 22.5844C520.033 16.9151 511.322 13.1768 501.389 13.1768C491.456 13.1768 482.745 16.9305 477.717 22.5844C472.688 16.9151 463.977 13.1768 454.044 13.1768C444.111 13.1768 435.4 16.9305 430.372 22.5844C425.344 16.9151 416.633 13.1768 406.7 13.1768C396.767 13.1768 388.056 16.9305 383.027 22.5844C377.999 16.9151 369.288 13.1768 359.355 13.1768C349.422 13.1768 340.711 16.9305 335.683 22.5844C330.654 16.9151 321.944 13.1768 312.01 13.1768C302.077 13.1768 293.367 16.9305 288.338 22.5844C283.31 16.9151 274.599 13.1768 264.666 13.1768C254.733 13.1768 246.022 16.9305 240.993 22.5844C235.965 16.9151 227.254 13.1768 217.321 13.1768C207.388 13.1768 198.089 17.1777 193.154 23.1714C188.218 17.1777 179.244 13.1768 168.986 13.1768C158.728 13.1768 150.342 16.9305 145.314 22.5844C140.286 16.9151 131.575 13.1768 121.642 13.1768C111.709 13.1768 102.998 16.9305 97.9694 22.5844C92.9409 16.9151 84.2301 13.1768 74.297 13.1768C64.364 13.1768 55.6532 16.9305 50.6247 22.5844C45.5963 16.9151 37.427 13.1768 27.5094 13.1768C12.0837 13.1768 0 22.399 0 33.7994V49.0153H721V33.7994C721 22.4145 707.849 13.1768 692.268 13.1768Z" fill="#FFFBDB"/>
</g>
<g clip-path="url(#clip1_177_129)">
<path d="M1412.27 0C1402.35 0 1393.36 3.75378 1388.33 9.40763C1383.3 3.73834 1374.45 0 1364.54 0C1354.62 0 1345.83 3.75378 1340.8 9.40763C1335.77 3.73834 1327.03 0 1317.1 0C1307.17 0 1297.85 4.00095 1292.92 9.99464C1287.98 4.00095 1278.99 0 1268.73 0C1258.48 0 1250.09 3.75378 1245.06 9.40763C1240.03 3.73834 1231.32 0 1221.39 0C1211.46 0 1202.75 3.75378 1197.72 9.40763C1192.69 3.73834 1183.98 0 1174.04 0C1164.11 0 1155.4 3.75378 1150.37 9.40763C1145.34 3.73834 1136.63 0 1126.7 0C1116.77 0 1108.06 3.75378 1103.03 9.40763C1098 3.73834 1089.29 0 1079.36 0C1069.42 0 1060.71 3.75378 1055.68 9.40763C1050.65 3.73834 1041.94 0 1032.01 0C1022.08 0 1013.37 3.75378 1008.34 9.40763C1003.31 3.73834 994.599 0 984.666 0C974.733 0 966.022 3.75378 960.993 9.40763C955.965 3.73834 947.254 0 937.321 0C927.388 0 918.089 4.00095 913.154 9.99464C908.218 4.00095 899.244 0 888.986 0C878.728 0 870.342 3.75378 865.314 9.40763C860.286 3.73834 851.575 0 841.642 0C831.709 0 822.998 3.75378 817.969 9.40763C812.941 3.73834 804.23 0 794.297 0C784.364 0 775.653 3.75378 770.625 9.40763C765.751 3.75378 757.582 0 747.649 0C732.084 0 720 9.23771 720 20.6226V38.1866H1441V20.6226C1441 9.23771 1427.85 0 1412.27 0Z" fill="#8ECF3D"/>
<path d="M1412.27 6.07104C1402.35 6.07104 1393.36 9.82483 1388.33 15.4787C1383.3 9.80938 1374.45 6.07104 1364.54 6.07104C1354.62 6.07104 1345.83 9.82483 1340.8 15.4787C1335.77 9.80938 1327.03 6.07104 1317.1 6.07104C1307.17 6.07104 1297.85 10.072 1292.92 16.0657C1287.98 10.072 1278.99 6.07104 1268.73 6.07104C1258.48 6.07104 1250.09 9.82483 1245.06 15.4787C1240.03 9.80938 1231.32 6.07104 1221.39 6.07104C1211.46 6.07104 1202.75 9.82483 1197.72 15.4787C1192.69 9.80938 1183.98 6.07104 1174.04 6.07104C1164.11 6.07104 1155.4 9.82483 1150.37 15.4787C1145.34 9.80938 1136.63 6.07104 1126.7 6.07104C1116.77 6.07104 1108.06 9.82483 1103.03 15.4787C1098 9.80938 1089.29 6.07104 1079.36 6.07104C1069.42 6.07104 1060.71 9.82483 1055.68 15.4787C1050.65 9.80938 1041.94 6.07104 1032.01 6.07104C1022.08 6.07104 1013.37 9.82483 1008.34 15.4787C1003.31 9.80938 994.599 6.07104 984.666 6.07104C974.733 6.07104 966.022 9.82483 960.993 15.4787C955.965 9.80938 947.254 6.07104 937.321 6.07104C927.388 6.07104 918.089 10.072 913.154 16.0657C908.218 10.072 899.244 6.07104 888.986 6.07104C878.728 6.07104 870.342 9.82483 865.314 15.4787C860.286 9.80938 851.575 6.07104 841.642 6.07104C831.709 6.07104 822.998 9.82483 817.969 15.4787C812.941 9.80938 804.23 6.07104 794.297 6.07104C784.364 6.07104 775.653 9.82483 770.625 15.4787C765.596 9.80938 757.427 6.07104 747.509 6.07104C732.084 6.07104 720 15.3088 720 26.6937V42.821H1441V26.6937C1441 15.3088 1427.85 6.07104 1412.27 6.07104Z" fill="#E7DD9E"/>
<path d="M1412.27 13.1768C1402.35 13.1768 1393.36 16.9305 1388.33 22.5844C1383.3 16.9151 1374.45 13.1768 1364.54 13.1768C1354.62 13.1768 1345.83 16.9305 1340.8 22.5844C1335.77 16.9151 1327.03 13.1768 1317.1 13.1768C1307.17 13.1768 1297.85 17.1777 1292.92 23.1714C1287.98 17.1777 1278.99 13.1768 1268.73 13.1768C1258.48 13.1768 1250.09 16.9305 1245.06 22.5844C1240.03 16.9151 1231.32 13.1768 1221.39 13.1768C1211.46 13.1768 1202.75 16.9305 1197.72 22.5844C1192.69 16.9151 1183.98 13.1768 1174.04 13.1768C1164.11 13.1768 1155.4 16.9305 1150.37 22.5844C1145.34 16.9151 1136.63 13.1768 1126.7 13.1768C1116.77 13.1768 1108.06 16.9305 1103.03 22.5844C1098 16.9151 1089.29 13.1768 1079.36 13.1768C1069.42 13.1768 1060.71 16.9305 1055.68 22.5844C1050.65 16.9151 1041.94 13.1768 1032.01 13.1768C1022.08 13.1768 1013.37 16.9305 1008.34 22.5844C1003.31 16.9151 994.599 13.1768 984.666 13.1768C974.733 13.1768 966.022 16.9305 960.993 22.5844C955.965 16.9151 947.254 13.1768 937.321 13.1768C927.388 13.1768 918.089 17.1777 913.154 23.1714C908.218 17.1777 899.244 13.1768 888.986 13.1768C878.728 13.1768 870.342 16.9305 865.314 22.5844C860.286 16.9151 851.575 13.1768 841.642 13.1768C831.709 13.1768 822.998 16.9305 817.969 22.5844C812.941 16.9151 804.23 13.1768 794.297 13.1768C784.364 13.1768 775.653 16.9305 770.625 22.5844C765.596 16.9151 757.427 13.1768 747.509 13.1768C732.084 13.1768 720 22.399 720 33.7994V49.0153H1441V33.7994C1441 22.4145 1427.85 13.1768 1412.27 13.1768Z" fill="#FFFBDB"/>
</g>
<defs>
<clipPath id="clip0_177_129">
<rect width="721" height="49" fill="white"/>
</clipPath>
<clipPath id="clip1_177_129">
<rect width="721" height="49" fill="white" transform="translate(720)"/>
</clipPath>
</defs>
</svg>
