<svg width="35" height="134" fill="none" xmlns="http://www.w3.org/2000/svg"><path fill-rule="evenodd" clip-rule="evenodd" d="M26.412 116.791c-.037.102-.084.137-.09.178-.56 2.503-1.512 4.833-2.355 7.223-.502 1.44-1.105 2.883-1.513 4.36a13.5 13.5 0 00-.434 3.318c-.022.49-.044.98-.144 1.457-.037.101.014.281-.15.297a.354.354 0 01-.354-.167c-.179-.374-.358-.747-.514-1.139-1.295-2.836-1.791-5.882-2.117-8.984a410.988 410.988 0 00-.607-5.511 6.756 6.756 0 00-.224-1.068c-.473.907-1.004 1.676-1.678 2.336-.237.217-.3.228-.384-.108a.84.84 0 01-.022-.347c.443-3.252.177-6.473-.298-9.644a29.024 29.024 0 01-.047-8.379c.163-1.217.61-2.322 1.173-3.408.227-.391.335-.802.327-1.233l-.158-8.075c-.084-5.509-.067-11.022.168-16.52.029-.531-.12-.964-.518-1.353a7.45 7.45 0 01-2.096-3.1c-.05-.18-.153-.284-.35-.317-.257-.022-.415-.156-.468-.444-.394-2.212-.85-4.414-1.042-6.635-.151-1.743.142-3.496.31-5.228.125-1.224.35-2.452.553-3.663.035-.209-.03-.305-.234-.404-.322-.119-.527-.218-.76.215-.393.664-1.217.782-1.943.317-.293-.178-.408-.09-.583.116-.593.78-1.218 1.512-1.995 2.068l-.092.07c-.162.123-.385.258-.55.165-.166-.092-.125-.343-.113-.534.02-.597.078-1.188-.059-1.813-.33.288-.652.534-.943.829C4.531 53.16 2.7 53.646.691 53.394c-.493-.062-.575-.29-.358-.748.57-1.127 1.18-2.248 1.64-3.436.78-2.015 1.27-4.1 1.235-6.296-.012-.173.148-.404-.002-.472-.165-.093-.27.169-.408.274-.422.359-.844.717-1.289 1.093-.161.123-.378.215-.504.13-.143-.11-.124-.343-.05-.546.451-1.254.606-2.538.767-3.863.313-2.716 1.374-5.091 3.105-7.14.8-.937 1.817-1.603 2.913-2.148 1.376-.649 2.623-1.49 3.957-2.253.802-.466 1.349-1.21 1.627-2.151.081-.244.162-.488.266-.75.111-.303.282-.36.504-.13.136.152.18.374.246.579.12.6.242 1.2.371 1.865.238-.217.303-.486.368-.754.058-.226.155-.446.374-.43.202-.01.223.23.273.41.144.583.288 1.165.47 1.754.16.606.259 1.224.154 1.85-.042.25.038.372.266.453 1.132.448 2.098 1.169 2.966 2.109.081-.244.1-.477.096-.692.076-4.065.316-8.146.611-12.195.132-1.63.577-3.209 1.038-4.762.78-2.745 1.412-5.557 2.287-8.265.588-1.832 1.192-3.64 1.803-5.49.132-.43.343-.845.688-1.108.307-.27.58-.225.806.114.112.169.179.373.245.578 1.569 4.45 2.548 9.057 3.38 13.704.305 1.661.804 3.248 1.048 4.92.109.791.202 1.558.272 2.342.072.528.237.985.557 1.36 1.015 1.266 1.544 2.793 1.895 4.42.772 3.563.3 6.982-1.1 10.31a26.635 26.635 0 01-2.278 4.359c-.212.308-.291.66-.292 1.024-.277 5.383-.57 10.743-.847 16.126-.03.424-.045.873-.099 1.314-.027.167.037.264.18.374.41.305.8.628 1.21.934.198.14.334.292.285.584a.397.397 0 00.069.312c.578.87.636 1.846.446 2.865-.133.794-.095 1.53.223 2.27.379.987.1 1.927-.295 2.848a14.378 14.378 0 01-2.039 3.413c-.48.584-.709 1.233-.733 1.98-.211 5.952-.445 11.922-.695 17.868-.075 1.77.309 3.444.817 5.096 1.2 4.001 1.468 8.06.613 12.208-.293 1.389-.813 2.697-1.278 4.035-.296.809-.576 1.641-.74 2.494a.44.44 0 01-.043.143c-.125.387-.171.422-.442.118-.343-.358-.468-.808-.657-1.248-.128-.193-.137-.259-.201-.356z" fill="#010102"/><path fill-rule="evenodd" clip-rule="evenodd" d="M19.65 99.556c-.025.747-.127 1.48-.292 2.225-.52 2.144-.307 4.239.147 6.332.034.156.124.343.264.345.18.009.247-.151.298-.336.161-.487.395-.92.823-1.32.068 3.08.631 5.964 2.026 8.687.13-.536.252-1.03.352-1.507a38.882 38.882 0 011.473-4.837c.51-1.372.826-2.778.89-4.248.004-.257.046-.507.078-.823.27.195.506.342.736.531.158.134.227.081.317-.097.113-.195.11-.41.144-.619A15.79 15.79 0 0027 99.12a7.457 7.457 0 011.557-.896c.046-.035.102-.004.15.068.516 2.082 1.14 4.118 1.3 6.291.222 3.363-.033 6.688-1.327 9.86-.366.861-.636 1.76-.946 2.651-.037.101-.097.22-.165.38-.233-.404-.35-.788-.444-1.19-.093-.402-.164-.822-.235-1.241-.025-.09-.004-.215-.121-.235-.14-.002-.232.068-.276.211-.03.059-.021.125-.051.184-.163 2.054-.804 3.963-1.484 5.865a612.27 612.27 0 00-2.3 6.307c-.496 1.397-.772 2.809-.759 4.292-.005.149-.026.274-.008.406.01.066-.02.125-.057.226-.221-.123-.248-.32-.315-.525-.985-2.526-1.528-5.17-1.776-7.894-.228-2.484-.455-4.968-1.063-7.345-.076-.27-.167-.564-.344-.83-.491.775-.944 1.557-1.435 2.333a.427.427 0 01-.117-.385c.23-2.579.032-5.122-.352-7.633-.526-3.349-.49-6.69.014-10.06.095-.692.324-1.34.663-1.926.417.156.697.525 1.083.74.363.233.71.441 1.11.573.21-.05.336.035.347.209z" fill="#F6D58A"/><path fill-rule="evenodd" clip-rule="evenodd" d="M24.941 72.864c-.575.912-1.15 1.824-1.676 2.808-.474.907-1.145 1.674-1.864 2.369-.43.4-.545.852-.316 1.406.09.186.133.408.176.63-.13.536.058.976.302 1.446.642 1.331 1.438 2.582 2.265 3.772.16.242.35.424.618.512.51.194.927-.015 1.064-.593a.236.236 0 01.06-.119c.505-.13.646-.492.69-1 .064-.74-.184-1.425-.415-2.087-.133-.408-.272-.775-.405-1.184.026-.275.123-.494.33-.653.837-.674 1.483-1.531 2.152-2.406.13-.171.259-.342.42-.465.07-.053.13-.172.233-.069.023 1.185-.055 2.373-.11 3.544-.17 4.865-.386 9.764-.455 14.625-.008.77-.258 1.18-.93 1.474-2.875 1.319-5.769 1.303-8.674.278-.589-.207-.862-.618-.845-1.323.077-5.267-.15-10.52-.075-15.786.028-2.571.063-5.184.153-7.765.014-.084.028-.167.026-.275.138-.105.241-.002.375.042.848.336 1.718.547 2.637.465.817-.077 1.675-.04 2.493-.116a1.39 1.39 0 01.821.138c.205.099.407.09.626.106.087.079.235.04.324.226z" fill="#80BEF5"/><path fill-rule="evenodd" clip-rule="evenodd" d="M18.176 48.086c1.478-1.999 2.916-4.004 4.997-5.409.338-.221.54-.23.817.03.816.759 1.602 1.576 2.112 2.604a.589.589 0 01-.033.316c-.636 1.284-1.343 2.513-2.341 3.565-.412.423-.675.914-.889 1.477-.17.421-.201.844-.154 1.28.29 1.269.64 2.527.822 3.842.066.567.131 1.135.096 1.707a10.46 10.46 0 00.156 2.424c.139.73.208 1.512.308 2.235.036.263-.038.465-.244.622-.253.193-.53.404-.798.572-.315.204-.678.336-1.041.467-1.236.434-2.422 1.048-3.724 1.278-1.442.228-2.85.248-4.192-.363-.149-.068-.275-.154-.286-.327-.302-1.913-.65-3.791-.828-5.726-.135-1.35.095-2.724.279-4.063.144-.982.304-1.94.448-2.921.237-.217.508-.279.772-.298 1.196-.077 2.013-.882 2.781-1.758.38-.471.689-.997.942-1.554z" fill="#F6D58A"/><path fill-rule="evenodd" clip-rule="evenodd" d="M20.448 21.097l.866 1.303c.402.603.744.596 1.113-.048.233-.433.505-.858.809-1.236.129-.17.19-.182.35-.048.419.37.878.748 1.298 1.119.42.37.52.366.807-.143.248-.408.458-.823.707-1.23.12-.238.251-.301.474-.07.436.394.895.771 1.354 1.149.53.432.739.381 1.1-.222.25-.408.515-.792.787-1.218.113-.195.214-.2.349-.048.151.176.264.345.307.566.492 3.661.47 7.278-.847 10.828-.591 1.614-1.426 3.123-2.364 4.53a114.761 114.761 0 00-2.54 3.9c-.58.952-1.321 1.663-2.317 2.095-.154.081-.285.145-.44.226-.439.226-.439.226-.426-.329a15.02 15.02 0 00-.21-3.913c-.304-1.659-.933-3.179-1.756-4.624-.121-.235-.187-.439-.185-.695.198-3.824.412-7.623.61-11.447.02-.125.018-.232.04-.357l.114-.088z" fill="#80BEF5"/><path fill-rule="evenodd" clip-rule="evenodd" d="M7.434 51.237c-.047-.436.022-.852-.172-1.248-.057-.138-.091-.293-.247-.32-.298-.135-.505.022-.719.222-.664.615-1.36 1.182-2.232 1.484-.409.167-.82.226-1.247.261-.442.011-.885.022-1.335.075-.1.004-.248.043-.305-.095.62-1.307 1.223-2.638 1.662-4.061.563-1.81.814-3.67.691-5.573a4.546 4.546 0 00-.209-1.147c-.611.538-.984 1.33-1.724 1.677-.036-.263.022-.488.08-.714.278-1.664.4-3.354.929-4.955.63-1.969 1.725-3.602 3.104-5.017.533-.552 1.258-.814 1.936-1.15 1.024-.49 1.968-1.101 2.928-1.688.469-.285.97-.521 1.422-.83.72-.477 1.252-1.136 1.515-1.99.037-.101.003-.256.175-.206.133.044.073.162.098.252.01.536-.002 1.09.009 1.627.01.172-.001.363.164.455.165.092.31-.055.432-.184l.503-.493c.222.23.173.521.187.802-.005.983-.275 1.878-.779 2.735-.278.466-.534.915-.812 1.381-.504.856-1.159 1.538-2.004 2.037-.07.052-.177.098-.23.175-.857.69-1.778 1.283-2.715 1.853-.154.08-.244.258-.39.297-.267.276-.061.482.113.64.77.792 1.493 1.62 2.049 2.612.13.3.175.628.158.968-.048 1.489.043 2.98-.246 4.47-.183.975-.382 1.926-.98 2.745-.258.341-.334.799-.482 1.202-.237.58-.578 1.057-.973 1.504-.122.13-.22.24-.354.197z" fill="#F79F77"/><path fill-rule="evenodd" clip-rule="evenodd" d="M8.602 37.27c1.905-.472 3.472-1.558 4.949-2.83.964-.844 1.627-1.932 2.078-3.184.161-.487.177-.462.586-.265 2.37 1.063 3.718 3.09 4.568 5.567.66 1.932.824 3.951.545 5.982-.04.357-.096.69-.379.943-1.109.99-1.995 2.212-2.827 3.464-.93 1.364-2.207 2.156-3.694 2.527-.797.208-1.562.1-2.308-.239-.204-.099-.296-.029-.354.197-.166.636-.281.724-.74.71-.46-.012-.997-.403-1.068-.821-.06-.353.192-.546.463-.608.295-.079.384-.256.45-.524.297-1.063.713-2.107.839-3.221.345-2.662-.47-4.877-2.21-6.712-.309-.31-.618-.618-.944-.952.055.031.078.014.046-.035z" fill="#F1C5A2"/><path fill-rule="evenodd" clip-rule="evenodd" d="M30.48 19.765c-.516-.151-.774.191-.977.564-.226.391-.485.734-.71 1.124-.107.154-.192.182-.334.073-.443-.354-.856-.766-1.292-1.161-.572-.547-.921-.498-1.343.224-.25.408-.466.865-.755 1.266-.397-.388-.77-.794-1.19-1.165-.508-.45-.75-.448-1.206.118-.304.378-.537.81-.802 1.195-.053.076-.067.16-.175.206-.463-.593-.92-1.227-1.383-1.82a.446.446 0 01-.061-.353c.036-.937.15-1.86.398-2.741.75-2.682 1.483-5.388 2.233-8.07.05-.184.118-.345.199-.588 1.738 1.257 3.343.906 4.944-.497.809 3.931 1.639 7.736 2.455 11.625z" fill="#F2CBAE"/><path fill-rule="evenodd" clip-rule="evenodd" d="M29.701 45.839a628.93 628.93 0 01-.333 6.44c-.223 3.736-.26 7.44-.42 11.164-.015.448-.014.92-.176 1.407-.818-.395-1.643-.748-2.46-1.143-.3-.136-.637-.279-.936-.415-.487-.21-.76-.621-.826-1.19-.222-1.795-.42-3.608-.48-5.42-.062-1.189-.372-2.335-.582-3.485-.027-.198-.077-.378-.105-.575.206-.266.477-.327.762-.472 1.386-.839 2.534-1.932 3.362-3.4.286-.51.691-.892 1.01-1.353.295-.443.629-.88.963-1.317.044-.143.104-.261.221-.241z" fill="#80BEF5"/><path fill-rule="evenodd" clip-rule="evenodd" d="M26.168 44.597a10.136 10.136 0 00-1.774-1.99c-.245-.212-.224-.337-.026-.56 2.138-2.83 4.15-5.746 5.674-8.98 1.277-2.718 1.67-5.67 1.55-8.667.005-.149-.069-.31.037-.464 1.635 1.26 2.504 7.465 1.517 10.725-.632 1.863-1.77 3.384-2.868 4.912-.893 1.263-1.754 2.574-2.647 3.836a10.5 10.5 0 01-.995 1.267c-.244.259-.299.228-.468-.079z" fill="#F1C5A2"/><path fill-rule="evenodd" clip-rule="evenodd" d="M26.543 99.271c.232 1.498.098 3.019-.09 4.51-.029.167-.09.178-.217.092a4.108 4.108 0 00-.607-.338c-.204-.098-.336-.035-.378.216-.013.083-.027.166-.018.232-.024 1.948-.495 3.799-1.16 5.617-.482 1.313-.93 2.675-1.239 4.038-.037.101-.058.226-.173.314a14.307 14.307 0 01-.75-2.121c-.514-1.974-.64-3.989-.54-6.032.022-.125.096-.327-.077-.377-.149-.068-.2.116-.3.228-.41.532-.827 1.105-1.26 1.654-.113-.169-.1-.36-.135-.516-.372-1.864-.205-3.702.18-5.525.107-.518.175-1.043.265-1.585.168-.165.373-.066.546-.016.848.336 1.729.356 2.593.352.999.039 1.998-.286 2.964-.66.148-.039.263-.127.396-.083z" fill="#F79F77"/><path fill-rule="evenodd" clip-rule="evenodd" d="M23.887 63.61c.296-.335.576-.33.96-.117.857.508 1.766.939 2.653 1.387.408.197.408.197.088.55-.974 1.032-1.955 2.107-2.826 3.242-.507.641-.921 1.32-1.342 2.04-.113.194-.253.192-.432.183-1.402-.236-2.835-.413-4.157-.892-.735-.273-1.463-.588-1.974-1.251-.112-.169-.293-.285-.45-.418-.087-.079-.174-.158-.115-.276.044-.142.161-.122.262-.127.062-.01 0 0 .039.007 1.591-.053 2.984-.716 4.263-1.655.367-.28.766-.512 1.143-.726.645-.383 1.178-.934 1.671-1.492.083-.136.15-.296.217-.455z" fill="#89D069"/><path fill-rule="evenodd" clip-rule="evenodd" d="M27.29 71.918l.23-.175c-.773-.173-1.53.041-2.249-.101l-.117-.02c-.39-.065-.438-.138-.235-.51.262-.49.54-.957.858-1.417.84-1.186 1.554-2.456 2.197-3.781.165-.272.411-.423.723-.37 1.303.24 2.538 1.368 2.8 2.803-.014.083-.028.166-.065.267-.638 1.176-1.072 2.451-1.89 3.512a42.176 42.176 0 01-2.72 3.308c-.098.112-.174.206-.314.204a3.83 3.83 0 00-2.144-1.089c.354-.56.686-1.104 1.033-1.623.106-.154.27-.169.416-.209.524-.254 1.066-.376 1.477-.8z" fill="#F1C5A2"/><path fill-rule="evenodd" clip-rule="evenodd" d="M25.65.728c.133.044.15.176.192.29.592 1.987 1.184 3.974 1.76 5.936.183.589.153.648-.324.975-.322.246-.66.468-.992.648-.886.494-1.746.35-2.59-.136-.567-.332-.606-.338-.393-1.01.597-2.13 1.265-4.204 2.09-6.253.06-.119.095-.327.256-.45z" fill="#80BEF5"/><path fill-rule="evenodd" clip-rule="evenodd" d="M24.795 80.211c-.059.592.093 1.134.33 1.647.268.56.429 1.168.566 1.794.069.312.075.636-.258.816-.31.163-.54-.026-.707-.226-.369-.45-.707-.958-1.03-1.442-.634-.903-1.262-1.847-1.897-2.75l-.21-.314c-.372-.665-.337-.874.16-1.435.298-.337.573-.656.871-.993.2-.225.423-.359.73-.264.542.134 1.053.328 1.438.8.214.166.241.364.16.608-.215.566-.173 1.154-.153 1.76z" fill="#757575"/><path fill-rule="evenodd" clip-rule="evenodd" d="M23.893 63.581c.091.294-.14.47-.268.641-.693.783-1.553 1.367-2.446 1.902-.63.408-1.212.888-1.884 1.182-.972.415-1.922.812-3.013.735.224.338.532.54.786.818.564.588 1.279.88 2.039 1.136 1.276.408 2.572.584 3.876.825.157.026.29.07.45-.053-.1.369-.317.46-.721.478-1.774.044-3.423-.298-4.989-1.14-1.085-.59-1.835-1.509-2.456-2.599-.137-.259-.477-.509-.327-.805.083-.136.52-.105.784-.125 2.532-.259 4.93-1.033 7.216-2.34.322-.247.637-.45.953-.655z" fill="#609149"/><path fill-rule="evenodd" clip-rule="evenodd" d="M26.234 44.614c.128.192.222.23.42.007 1.007-1.24 1.818-2.619 2.755-3.913 1.043-1.446 2.062-2.876 2.979-4.408.255-.448.455-.926.694-1.399.053-.076.067-.16.136-.212-.23 1.37-.747 2.671-1.336 3.917-1.244 2.65-2.827 5.053-4.606 7.315a.377.377 0 01-.121.129c-.152.188-.29.293-.35-.06-.119-.489-.368-.915-.57-1.376z" fill="#A88971"/><path fill-rule="evenodd" clip-rule="evenodd" d="M29.617 45.825a64.29 64.29 0 01-1.933 2.594c-.362.493-.677 1.058-1.04 1.55-.687.886-1.58 1.567-2.499 2.158a5.019 5.019 0 01-.829.415c-.143-.578-.143-.578.3-.951 1.218-1.074 2.303-2.297 3.348-3.528a.831.831 0 00.196-.691.665.665 0 01.129-.532c.78-.956 1.559-1.911 2.315-2.85a.216.216 0 01.108-.045c.058.606-.007 1.235-.095 1.88z" fill="#26659F"/><path fill-rule="evenodd" clip-rule="evenodd" d="M26.48 99.26c-.477.327-1.026.492-1.568.614-.535.082-1.059.336-1.573.292-.927-.092-1.875-.059-2.784-.383-.15-.068-.312-.053-.491-.061-.002-.472.02-.96-.115-1.475 1.093.184 2.137.295 3.186.258a8.496 8.496 0 002.853-.504c.255-.086.326-.03.362.232.045.329.153.646.13 1.028z" fill="#B15A1F"/><path fill-rule="evenodd" clip-rule="evenodd" d="M7.489 51.273a5.021 5.021 0 001.336-2.11c.125-.386.273-.79.508-1.114.493-.667.586-1.465.773-2.226.366-1.588.273-3.189.28-4.794.01-.298-.02-.603-.072-.89 1.047 1.783 1.209 3.695.727 5.734-.16.595-.342 1.207-.518 1.777a1.256 1.256 0 01-.637.814c-.325.138-.442.482-.303.848.124.342.043.586-.162.851-.47.65-.949 1.233-1.554 1.73-.23.176-.308.163-.338-.142a1.29 1.29 0 01-.04-.478z" fill="#B8400A"/><path fill-rule="evenodd" clip-rule="evenodd" d="M22.601 51.982c-.224-.336-.122-.703-.02-1.07.232-.794.7-1.441 1.263-2.05.54-.593 1.063-1.21 1.406-1.942.246-.514.53-1.02.777-1.534.274.515.44 1.077.544 1.65.07.417-.03.785-.32 1.077-.806.868-1.548 1.832-2.44 2.621-.282.252-.565.503-.863.73a.696.696 0 00-.347.518z" fill="#AB8736"/><path fill-rule="evenodd" clip-rule="evenodd" d="M26.552 75.64c1.527-1.707 3.085-3.366 4.083-5.504.283-.614.543-1.211.897-1.77.223.699.09 1.38-.178 2.019-.568 1.484-1.444 2.767-2.39 3.996a78.197 78.197 0 01-1.756 2.245c-.162-.348-.41-.667-.656-.986z" fill="#A88971"/><path fill-rule="evenodd" clip-rule="evenodd" d="M8.024 36.902c.346-.518.923-.74 1.398-1.066.382-.255.788-.528 1.139-.832.488-.408 1.033-.679 1.521-1.087.633-.555 1.062-1.207 1.482-1.926.556-.93 1.104-1.818 1.23-2.927.06-.48.036-.932-.043-1.415.02-.124.12-.236.22-.24.117.02.15.175.192.288.476 1.338.222 2.618-.373 3.904-.655 1.403-1.666 2.427-2.906 3.264-1.11.773-2.227 1.48-3.53 1.858-.108.046-.19.18-.33.179z" fill="#B8400A"/><path fill-rule="evenodd" clip-rule="evenodd" d="M24.814 72.85c-.204-.099-.46-.013-.648-.088-1.325-.48-2.679-.066-4.019-.098-.779-.024-1.49-.209-2.212-.459a2.205 2.205 0 01-.377-.149c.017-.34.034-.68.028-1.002.002-.257.087-.285.292-.187.918.39 1.82.757 2.811.838.593.057 1.186.114 1.76.04.924-.124 1.749.23 2.617.44.156.026.204.099.099.252-.162.123-.245.26-.35.413zm.773 12.25c.232.664-.567 1.09-1.176.859a1.396 1.396 0 01-.622-.515c-.685-.977-1.278-2.026-1.902-3.014-.284-.48-.482-.987-.703-1.477-.132-.302-.082-.596.108-.887.986 1.48 1.965 3.004 2.997 4.45.33.443.719.66 1.297.584z" fill="#26659F"/><path fill-rule="evenodd" clip-rule="evenodd" d="M27.994 65.908c-.059.588-.43 1.016-.67 1.488-.65 1.257-1.536 2.366-2.225 3.616a.426.426 0 01-.106.153c-.135.212-.186.396.155.389a.203.203 0 01.11.061c-.543.016-1.042-.111-1.566-.327.947-1.591 2.044-3.007 3.244-4.32.342-.37.668-.763 1.058-1.06z" fill="#A88971"/><path fill-rule="evenodd" clip-rule="evenodd" d="M13.875 64.412c.07.054.096.144.174.157.774.28 1.557.625 2.442.603 1.048-.037 2.063-.122 3.081-.463.895-.32 1.757-.688 2.652-1.007.3-.12.594-.199.894-.32-.734.56-1.574.91-2.374 1.267-1.386.622-2.84.932-4.3 1.285-.727.155-1.444.013-2.152-.064-.14-.002-.204-.098-.222-.23-.087-.441-.14-.835-.195-1.228zm4.244-16.38c.056.5-.31.779-.506 1.108-.479.836-1.18 1.442-1.968 1.97-.16.122-.352.196-.515.212-.51.063-.972.198-1.473.327-.016-.024-.01-.066-.01-.066.047-.396.023-.848.202-1.201.202-.371.663-.144 1.025-.275 1.176-.463 2.376-.943 3.245-2.075z" fill="#AB8736"/><path fill-rule="evenodd" clip-rule="evenodd" d="M1.285 51.606c.704-.031 1.425-.038 2.12-.134 1.145-.148 2.06-.846 2.89-1.623.115-.087.214-.199.328-.286.176-.098.362-.13.46.12-.568.288-.883.853-1.348 1.244C4.278 52.109 2.692 52.63.86 52.472a6.2 6.2 0 01.425-.866z" fill="#B8400A"/><path fill-rule="evenodd" clip-rule="evenodd" d="M25.134 77.442c-.5-.491-1.106-.829-1.832-.93.278-.467.527-.875.783-1.325.06-.118.139-.105.24-.11.687.095 1.29.325 1.738.893.158.134.075.27.015.389-.235.324-.47.649-.689.998-.06.118-.168.164-.255.085z" fill="#FDFDFD"/><path fill-rule="evenodd" clip-rule="evenodd" d="M28.469 77.308c-.475.325-.743.856-1.076 1.29-.484.622-.96 1.203-1.58 1.674-.206.158-.231.43-.399.594a.809.809 0 01.084-.86 48.548 48.548 0 012.989-3.76c.038.368.06.713-.018 1.062z" fill="#26659F"/><path fill-rule="evenodd" clip-rule="evenodd" d="M19.533 99.497c-.08-.121-.198-.14-.308-.202-.818-.288-1.522-.773-2.144-1.393 0 0-.016-.024.007-.042.336-.803.336-.803 1.045-.468.316.16.631.32.954.44.378.15.531.433.5.858-.01.299-.028.532-.054.807zm9.067-1.16c-.457.094-.76.47-1.17.637-.17.057-.346.156-.516.213a16.474 16.474 0 00-.255-1.112c-.05-.18.01-.298.164-.38.415-.207.831-.415 1.23-.647.132-.064.233-.068.26.129.1.359.193.76.287 1.16z" fill="#B19F32"/><path fill-rule="evenodd" clip-rule="evenodd" d="M30.25 65.738c-.252-.171-.52-.366-.796-.52-.07-.055-.126-.086-.128-.193.015-.448.006-.877.154-1.281.23-.54.711-.652 1.208-.74a7.645 7.645 0 01-.437 2.734z" fill="#A88971"/><path fill-rule="evenodd" clip-rule="evenodd" d="M30.253 65.749c-.049-.073-.058-.139-.02-.24a6.7 6.7 0 00.393-2.231c-.002-.108.012-.192.104-.262.363.233.473.66.567 1.062.155.756.03 1.508-.126 2.32-.34-.251-.65-.453-.918-.65z" fill="#F0C4A2"/><path fill-rule="evenodd" clip-rule="evenodd" d="M25.142 77.458c.063-.01.14.002.178-.099.186-.397.46-.715.719-1.058.076-.094.113-.195.049-.291.332.291.481.724.63 1.156.025.09.027.198-.065.268l-.023.017c-.267.277-.484.733-.772.77-.287.038-.454-.526-.716-.763z" fill="#B1B1B1"/><path fill-rule="evenodd" clip-rule="evenodd" d="M24.778 80.213c-.222-.595-.124-1.18.059-1.793.08-.244.109-.41-.06-.61.341.25.49.683.669 1.056.048.073-.005.15-.081.244-.29.294-.455.674-.587 1.103z" fill="#515151"/><path fill-rule="evenodd" clip-rule="evenodd" d="M29.52 61.581c.316.268.578.505.895.772-.26.235-.594.308-.863.477-.132.064-.134-.044-.12-.127.04-.358.002-.73.087-1.122z" fill="#5E8F48"/><path fill-rule="evenodd" clip-rule="evenodd" d="M27.303 71.914c-.011.19-.149.294-.302.375-.515.212-1.005.513-1.561.611.2-.478.52-.722 1-.726.303-.014.586-.158.863-.26z" fill="#A88971"/><path fill-rule="evenodd" clip-rule="evenodd" d="M17.826 37.283c.417.627.356 1.474-.114 2.123-.417.572-1.166.853-1.848.61-.04-.007-.094-.038-.133-.044-.103-.103-.322-.118-.287-.327.051-.184.24-.11.38-.107.14.002.296.028.459.013.63-.044 1.035-.426 1.185-1.086.114-.56-.129-1.029-.687-1.294-.055-.03-.133-.044-.188-.074-.133-.044-.26-.13-.209-.314.051-.184.198-.224.355-.197.468.078.83.311 1.087.697z" fill="#030203"/><path fill-rule="evenodd" clip-rule="evenodd" d="M13.463 40.46c.207-.158.591-.05.745.233a.584.584 0 01-.165.744c-.253.193-.48.112-.674-.178-.153-.283-.113-.64.094-.799z" fill="#040303"/><path fill-rule="evenodd" clip-rule="evenodd" d="M16.178 33.544c.16.241.135.516-.096.691-.23.176-.412.06-.556-.158-.16-.241-.142-.474.05-.656.151-.19.457-.095.602.123z" fill="#040304"/><path fill-rule="evenodd" clip-rule="evenodd" d="M10.692 49.351c.403-.49.63-.408.83.204-.304.013-.564-.116-.83-.204z" fill="#15100F"/></svg>