<?xml version="1.0" encoding="UTF-8"?>
<svg id="Layer_1" xmlns="http://www.w3.org/2000/svg" version="1.1" viewBox="0 0 1920 159.08">
  <!-- Generator: Adobe Illustrator 29.5.1, SVG Export Plug-In . SVG Version: 2.1.0 Build 141)  -->
  <defs>
    <style>
      .st0 {
        fill: #f8f6f3;
      }
    </style>
  </defs>
  <polygon class="st0" points="457.68 116.94 457.68 159.08 -70 159.08 -70 118.62 -37.98 97 -4.69 119.48 28.61 97 61.9 119.48 95.2 97 128.49 119.48 161.79 97 195.08 119.48 228.38 97 261.67 119.48 294.96 97 328.26 119.48 361.56 97 394.85 119.48 428.15 97 457.68 116.94"/>
  <polygon class="st0" points="985.36 116.94 985.36 159.08 457.68 159.08 457.68 118.62 489.7 97 522.99 119.48 556.29 97 589.58 119.48 622.88 97 656.17 119.48 689.47 97 722.76 119.48 756.06 97 789.35 119.48 822.64 97 855.94 119.48 889.24 97 922.53 119.48 955.83 97 985.36 116.94"/>
  <polygon class="st0" points="1513.04 116.94 1513.04 159.08 985.36 159.08 985.36 118.62 1017.38 97 1050.67 119.48 1083.97 97 1117.26 119.48 1150.56 97 1183.85 119.48 1217.15 97 1250.44 119.48 1283.74 97 1317.03 119.48 1350.32 97 1383.62 119.48 1416.92 97 1450.21 119.48 1483.51 97 1513.04 116.94"/>
  <polygon class="st0" points="2040.72 116.94 2040.72 159.08 1513.04 159.08 1513.04 118.62 1545.06 97 1578.35 119.48 1611.65 97 1644.94 119.48 1678.24 97 1711.53 119.48 1744.83 97 1778.12 119.48 1811.42 97 1844.71 119.48 1878 97 1911.3 119.48 1944.6 97 1977.89 119.48 2011.19 97 2040.72 116.94"/>
</svg>